<?xml version="1.0" standalone="no"?>
<!DOCTYPE svg PUBLIC "-//W3C//DTD SVG 20010904//EN"
 "http://www.w3.org/TR/2001/REC-SVG-20010904/DTD/svg10.dtd">
<svg version="1.0" xmlns="http://www.w3.org/2000/svg"
 width="313.000000pt" height="313.000000pt" viewBox="0 0 313.000000 313.000000"
 preserveAspectRatio="xMidYMid meet">
<metadata>
Created by potrace 1.11, written by Peter Selinger 2001-2013
</metadata>
<g transform="translate(0.000000,313.000000) scale(0.100000,-0.100000)"
fill="#000000" stroke="none">
<path d="M1696 3063 c-3 -3 -38 -5 -78 -5 -121 0 -335 -77 -477 -174 -56 -38
-157 -139 -225 -227 -36 -45 -74 -92 -85 -105 -12 -12 -21 -25 -21 -29 0 -3
-17 -33 -38 -67 -22 -34 -46 -77 -55 -96 -8 -19 -29 -65 -46 -103 -40 -87 -58
-160 -72 -283 -6 -54 -20 -135 -31 -179 -18 -69 -32 -143 -51 -260 -4 -25 -42
-181 -77 -315 -4 -19 -24 -87 -43 -150 -26 -85 -37 -141 -40 -214 -3 -54 -9
-102 -14 -105 -5 -3 -9 -17 -10 -31 -1 -14 -4 -87 -8 -162 -4 -76 -11 -136
-15 -133 -15 9 -22 102 -10 124 6 12 7 21 3 21 -23 0 -52 -153 -31 -166 6 -4
8 -26 5 -57 -5 -37 -3 -53 8 -61 18 -14 23 -113 6 -144 -13 -25 -22 -27 -39
-10 -9 9 -12 9 -12 0 0 -7 -16 -12 -40 -12 -29 0 -40 -4 -40 -15 0 -12 -16
-15 -80 -15 l-80 0 0 -45 0 -45 558 0 559 0 30 60 c29 56 30 60 12 65 -10 4
-19 11 -19 17 0 27 213 332 301 431 34 37 93 92 132 122 40 30 90 70 112 90
35 31 36 34 13 26 -14 -6 -53 -23 -85 -40 -125 -63 -199 -72 -323 -39 -75 20
-94 32 -120 73 -26 43 -20 65 17 65 34 1 143 26 151 36 4 4 1 9 -5 11 -7 3
-13 11 -13 19 0 17 -27 19 -32 2 -2 -6 -10 -8 -17 -4 -7 5 -10 15 -7 23 5 11
1 13 -15 8 -15 -5 -19 -4 -14 5 5 8 1 11 -11 8 -11 -2 -18 -10 -16 -17 1 -7
-2 -10 -8 -6 -5 3 -10 12 -10 19 0 7 -10 18 -22 24 -19 9 -14 11 33 10 30 0
65 5 77 11 12 6 25 10 29 9 8 -2 99 9 146 18 38 8 24 24 -21 24 -20 0 -53 5
-72 10 -19 6 -65 12 -102 14 -55 3 -74 9 -99 30 -17 14 -35 26 -40 26 -5 0
-12 12 -15 26 -5 20 0 32 25 56 37 36 38 46 7 57 -13 5 -37 27 -55 48 -37 44
-40 86 -12 135 23 39 81 233 81 271 0 43 -28 101 -58 119 -25 16 -26 17 -7 23
11 4 38 16 59 27 79 42 332 18 501 -46 22 -8 54 -15 70 -16 17 0 49 -12 72
-27 118 -80 192 -135 223 -167 l34 -36 4 -138 c2 -101 -1 -150 -12 -187 -49
-166 -68 -232 -70 -250 -1 -11 -7 -30 -14 -42 -12 -22 -10 -21 37 6 l49 29 10
-31 c9 -30 10 -30 11 -7 2 20 5 16 20 -22 10 -25 22 -64 25 -85 4 -21 14 -48
22 -60 8 -13 10 -23 5 -23 -5 0 -2 -19 6 -42 11 -32 12 -47 4 -61 -6 -9 -7
-17 -2 -17 13 0 67 -55 109 -109 18 -25 53 -65 77 -90 113 -120 212 -231 249
-281 22 -30 56 -73 76 -95 20 -22 48 -56 63 -76 l26 -37 196 -1 195 -2 0 459
c0 467 -2 503 -40 573 -4 8 -20 47 -35 85 -16 38 -41 98 -57 133 -16 35 -30
84 -32 108 -1 25 -7 48 -12 51 -5 4 -16 27 -24 52 -7 25 -17 50 -20 55 -12 17
-118 344 -140 429 -11 44 -20 92 -20 107 0 15 -11 50 -25 77 -14 28 -25 54
-25 59 0 14 -106 248 -172 381 -51 101 -81 146 -174 255 -87 103 -123 139
-164 160 -28 15 -58 27 -66 27 -8 0 -17 7 -21 16 -3 8 -12 13 -20 10 -8 -3
-12 -2 -9 3 8 13 -91 20 -137 9 -26 -6 -50 -5 -66 1 -30 11 -167 22 -175 14z
m-751 -1183 c18 -8 17 -9 -7 -9 -16 -1 -28 4 -28 9 0 12 8 12 35 0z m775 -10
c12 -8 9 -10 -12 -10 -16 0 -28 5 -28 10 0 13 20 13 40 0z m-760 -113 c0 -12
7 -33 16 -45 19 -28 1 -29 -26 -2 -20 20 -26 50 -13 63 13 14 23 7 23 -16z
m80 13 c0 -5 -4 -10 -10 -10 -5 0 -10 5 -10 10 0 6 5 10 10 10 6 0 10 -4 10
-10z m33 -130 c-2 -72 -4 -83 -15 -97 -6 -7 -14 -48 -19 -90 -9 -70 -12 -109
-17 -219 -4 -74 -63 -35 -102 66 -12 30 -26 62 -30 72 -5 9 -12 52 -15 95 -6
78 -6 78 26 112 18 18 33 43 34 53 2 24 79 68 115 65 24 -2 25 -5 23 -57z
m-776 -1225 c12 -12 13 -23 5 -53 l-10 -37 -1 43 c-1 23 -5 42 -11 42 -5 0
-10 5 -10 10 0 14 9 12 27 -5z m2349 -243 c-9 -8 -26 10 -26 26 1 15 2 15 15
-2 8 -11 13 -21 11 -24z m64 -17 c7 -9 8 -15 2 -15 -5 0 -12 7 -16 15 -3 8 -4
15 -2 15 2 0 9 -7 16 -15z m32 -78 c11 -15 18 -35 16 -44 -5 -25 -39 31 -44
71 -2 17 -1 24 3 16 3 -8 15 -27 25 -43z"/>
<path d="M1472 1818 c-17 -13 -30 -29 -27 -36 3 -7 1 -11 -4 -8 -5 3 -12 -1
-15 -10 -4 -10 -2 -13 6 -7 7 4 3 -6 -10 -21 -12 -16 -22 -34 -22 -40 0 -6 5
-4 11 4 8 11 12 12 16 3 9 -25 30 -14 25 12 -5 29 19 54 54 55 17 0 20 -5 16
-28 -9 -61 67 -84 115 -35 15 14 29 21 30 16 4 -11 43 -6 43 5 0 4 -12 17 -27
30 -21 18 -23 22 -9 17 19 -6 19 -5 2 14 -15 16 -121 51 -158 51 -7 0 -28 -10
-46 -22z m128 -64 c0 -2 -7 -4 -15 -4 -8 0 -15 4 -15 10 0 5 7 7 15 4 8 -4 15
-8 15 -10z"/>
<path d="M1203 1324 c-30 -13 -9 -25 37 -23 31 2 49 7 47 13 -4 12 -64 18 -84
10z"/>
<path d="M1280 970 c0 -5 5 -10 10 -10 6 0 10 5 10 10 0 6 -4 10 -10 10 -5 0
-10 -4 -10 -10z"/>
<path d="M311 604 c0 -11 3 -14 6 -6 3 7 2 16 -1 19 -3 4 -6 -2 -5 -13z"/>
</g>
</svg>
